<?xml version="1.0" standalone="no"?>
<svg xmlns:xlink="http://www.w3.org/1999/xlink" id="wave" style="transform:rotate(0deg); transition: 0.3s" viewBox="0 0 1440 490" version="1.1" xmlns="http://www.w3.org/2000/svg"><defs><linearGradient id="sw-gradient-0" x1="0" x2="0" y1="1" y2="0"><stop stop-color="rgba(255, 234.331, 118.142, 1)" offset="0%"/><stop stop-color="rgba(255, 130.859, 1.53, 1)" offset="100%"/></linearGradient></defs><path style="transform:translate(0, 0px); opacity:1" fill="url(#sw-gradient-0)" d="M0,441L120,441C240,441,480,441,720,367.5C960,294,1200,147,1440,114.3C1680,82,1920,163,2160,171.5C2400,180,2640,114,2880,147C3120,180,3360,310,3600,318.5C3840,327,4080,212,4320,163.3C4560,114,4800,131,5040,130.7C5280,131,5520,114,5760,106.2C6000,98,6240,98,6480,130.7C6720,163,6960,229,7200,261.3C7440,294,7680,294,7920,277.7C8160,261,8400,229,8640,212.3C8880,196,9120,196,9360,163.3C9600,131,9840,65,10080,106.2C10320,147,10560,294,10800,343C11040,392,11280,343,11520,343C11760,343,12000,392,12240,392C12480,392,12720,343,12960,277.7C13200,212,13440,131,13680,130.7C13920,131,14160,212,14400,253.2C14640,294,14880,294,15120,285.8C15360,278,15600,261,15840,245C16080,229,16320,212,16560,179.7C16800,147,17040,98,17160,73.5L17280,49L17280,490L17160,490C17040,490,16800,490,16560,490C16320,490,16080,490,15840,490C15600,490,15360,490,15120,490C14880,490,14640,490,14400,490C14160,490,13920,490,13680,490C13440,490,13200,490,12960,490C12720,490,12480,490,12240,490C12000,490,11760,490,11520,490C11280,490,11040,490,10800,490C10560,490,10320,490,10080,490C9840,490,9600,490,9360,490C9120,490,8880,490,8640,490C8400,490,8160,490,7920,490C7680,490,7440,490,7200,490C6960,490,6720,490,6480,490C6240,490,6000,490,5760,490C5520,490,5280,490,5040,490C4800,490,4560,490,4320,490C4080,490,3840,490,3600,490C3360,490,3120,490,2880,490C2640,490,2400,490,2160,490C1920,490,1680,490,1440,490C1200,490,960,490,720,490C480,490,240,490,120,490L0,490Z"/></svg>