<?xml version="1.0" standalone="no"?>
<svg xmlns:xlink="http://www.w3.org/1999/xlink" id="wave" style="transform:rotate(0deg); transition: 0.3s" viewBox="0 0 1440 490" version="1.1" xmlns="http://www.w3.org/2000/svg"><defs><linearGradient id="sw-gradient-0" x1="0" x2="0" y1="1" y2="0"><stop stop-color="rgba(255, 234.331, 118.142, 1)" offset="0%"/><stop stop-color="rgba(255, 130.859, 1.53, 1)" offset="100%"/></linearGradient></defs><path style="transform:translate(0, 0px); opacity:1" fill="url(#sw-gradient-0)" d="M0,0L120,65.3C240,131,480,261,720,326.7C960,392,1200,392,1440,367.5C1680,343,1920,294,2160,253.2C2400,212,2640,180,2880,171.5C3120,163,3360,180,3600,155.2C3840,131,4080,65,4320,81.7C4560,98,4800,196,5040,228.7C5280,261,5520,229,5760,245C6000,261,6240,327,6480,318.5C6720,310,6960,229,7200,179.7C7440,131,7680,114,7920,106.2C8160,98,8400,98,8640,138.8C8880,180,9120,261,9360,285.8C9600,310,9840,278,10080,294C10320,310,10560,376,10800,408.3C11040,441,11280,441,11520,367.5C11760,294,12000,147,12240,130.7C12480,114,12720,229,12960,245C13200,261,13440,180,13680,196C13920,212,14160,327,14400,310.3C14640,294,14880,147,15120,81.7C15360,16,15600,33,15840,81.7C16080,131,16320,212,16560,253.2C16800,294,17040,294,17160,294L17280,294L17280,490L17160,490C17040,490,16800,490,16560,490C16320,490,16080,490,15840,490C15600,490,15360,490,15120,490C14880,490,14640,490,14400,490C14160,490,13920,490,13680,490C13440,490,13200,490,12960,490C12720,490,12480,490,12240,490C12000,490,11760,490,11520,490C11280,490,11040,490,10800,490C10560,490,10320,490,10080,490C9840,490,9600,490,9360,490C9120,490,8880,490,8640,490C8400,490,8160,490,7920,490C7680,490,7440,490,7200,490C6960,490,6720,490,6480,490C6240,490,6000,490,5760,490C5520,490,5280,490,5040,490C4800,490,4560,490,4320,490C4080,490,3840,490,3600,490C3360,490,3120,490,2880,490C2640,490,2400,490,2160,490C1920,490,1680,490,1440,490C1200,490,960,490,720,490C480,490,240,490,120,490L0,490Z"/></svg>